<?xml version="1.0" standalone="no"?>
<!DOCTYPE svg PUBLIC "-//W3C//DTD SVG 20010904//EN"
 "http://www.w3.org/TR/2001/REC-SVG-20010904/DTD/svg10.dtd">
<svg version="1.0" xmlns="http://www.w3.org/2000/svg"
 width="700.000000pt" height="700.000000pt" viewBox="0 0 700.000000 700.000000"
 preserveAspectRatio="xMidYMid meet">
<metadata>
Created by potrace 1.14, written by Peter Selinger 2001-2017
</metadata>
<g transform="translate(0.000000,700.000000) scale(0.100000,-0.100000)"
fill="#000000" stroke="none">
<path d="M5707 6514 c-1 -1 -54 -4 -117 -8 -63 -3 -133 -8 -155 -11 -22 -3
-80 -10 -130 -16 -94 -11 -297 -43 -375 -59 -25 -6 -56 -12 -70 -14 -51 -9
-187 -38 -265 -57 -44 -10 -89 -21 -100 -23 -11 -2 -49 -12 -85 -21 -36 -9
-72 -18 -80 -20 -8 -2 -49 -13 -90 -25 -41 -11 -84 -23 -95 -25 -71 -16 -567
-168 -770 -236 -326 -110 -953 -337 -1020 -369 -11 -5 -108 -44 -215 -86 -107
-41 -208 -82 -225 -89 -16 -8 -55 -23 -85 -35 -30 -11 -64 -25 -75 -30 -11 -5
-117 -49 -235 -99 -178 -74 -597 -254 -740 -319 -19 -9 -37 -16 -40 -17 -6 -2
-97 -43 -305 -137 -182 -83 -234 -107 -309 -143 -39 -19 -84 -38 -99 -44 l-27
-11 0 -2310 0 -2310 2599 0 2599 0 10 27 c10 26 152 465 158 488 2 6 44 141
94 300 133 427 133 426 224 740 75 258 151 530 161 574 2 9 16 59 30 111 31
113 105 397 111 424 2 11 17 74 33 140 17 67 41 171 56 231 14 61 29 126 35
145 5 19 11 49 14 65 3 17 8 39 10 50 21 97 59 274 62 290 2 11 8 40 14 65 9
44 56 297 80 435 7 39 14 79 17 90 2 11 6 36 9 55 3 19 7 46 9 60 5 26 23 156
30 212 2 18 6 49 9 68 9 58 24 180 30 250 3 25 8 72 11 105 18 182 29 406 28
613 -1 244 -9 366 -39 560 -12 76 -45 219 -68 292 l-24 75 -44 7 c-23 3 -59 9
-78 13 -51 9 -86 14 -172 21 -70 5 -296 12 -301 8z"/>
</g>
</svg>
